<?xml version="1.0" ?>
<!DOCTYPE svg  PUBLIC '-//W3C//DTD SVG 1.1//EN'  'http://www.w3.org/Graphics/SVG/1.1/DTD/svg11.dtd'>
<!-- Uploaded to: SVG Repo, www.svgrepo.com, Generator: SVG Repo Mixer Tools -->
<svg fill="#000000" width="800px" height="800px" viewBox="0 0 2.33333 2.33333" style="shape-rendering:geometricPrecision; text-rendering:geometricPrecision; image-rendering:optimizeQuality; fill-rule:evenodd; clip-rule:evenodd" xml:space="preserve" xmlns="http://www.w3.org/2000/svg" xmlns:xlink="http://www.w3.org/1999/xlink">
<defs>
<style type="text/css">
   <![CDATA[
    .fil0 {fill:black;fill-rule:nonzero}
   ]]>
  </style>
</defs>
<g id="Layer_x0020_1">
<path class="fil0" d="M1.16667 0.98024c0.165547,0 0.248969,0.201091 0.131819,0.31824 -0.11715,0.11715 -0.31824,0.0337283 -0.31824,-0.131819 0,-0.102957 0.0834646,-0.186421 0.186421,-0.186421zm0.103535 0.0828858c-0.0920118,-0.0920118 -0.249957,-0.0264921 -0.249957,0.103535 0,0.130028 0.157945,0.195547 0.249957,0.103535 0.0571811,-0.0571811 0.0571811,-0.14989 0,-0.207071z"/>
<path class="fil0" d="M1.16667 1.05699c0.0609331,0 0.109669,0.0486181 0.109669,0.109669 0,0.0605039 -0.0492008,0.109669 -0.109669,0.109669 -0.0605039,0 -0.109669,-0.0492008 -0.109669,-0.109669 0,-0.0605039 0.0492008,-0.109669 0.109669,-0.109669zm0 0.04c-0.091748,0 -0.091752,0.139339 0,0.139339 0.091748,0 0.091752,-0.139339 0,-0.139339z"/>
<path class="fil0" d="M0.590921 1.10338c-0.00277559,0.0261063 0.036874,0.0303622 0.039685,0.00422047 0.0269016,-0.250102 0.226898,-0.450087 0.476992,-0.476996 0.0261614,-0.00281496 0.0218583,-0.0424921 -0.00422047,-0.039685 -0.269039,0.0289449 -0.483165,0.243079 -0.512457,0.512461zm0.639031 -0.512461c-0.0261063,-0.00277559 -0.0303622,0.036874 -0.00422047,0.039685 0.25011,0.0269055 0.450087,0.226894 0.476992,0.476996 0.00281496,0.0261614 0.0424882,0.0218583 0.039685,-0.00422047 -0.0289409,-0.269055 -0.243071,-0.483161 -0.512457,-0.512461zm0.512453 0.639035c0.00277559,-0.0261063 -0.036874,-0.0303622 -0.039685,-0.00422047 -0.0269055,0.250102 -0.226886,0.450087 -0.476988,0.476988 -0.0261614,0.00281496 -0.0218583,0.0424882 0.00422047,0.039685 0.269055,-0.028937 0.483154,-0.243071 0.512453,-0.512453zm-0.639028 0.512453c0.0261063,0.00277559 0.0303622,-0.036874 0.00422047,-0.039685 -0.250094,-0.0269055 -0.450083,-0.226886 -0.476988,-0.476988 -0.00281496,-0.0261614 -0.0424882,-0.0218583 -0.039685,0.00422047 0.0289409,0.269051 0.243079,0.483154 0.512453,0.512453z"/>
<path class="fil0" d="M0.51228 1.10361c-0.00246063,0.0261299 0.0372126,0.0298661 0.039685,0.00374803 0.0277717,-0.293331 0.262063,-0.527634 0.555394,-0.555402 0.026126,-0.00247244 0.0223701,-0.0421575 -0.00374803,-0.039685 -0.312677,0.0296024 -0.561539,0.278469 -0.591331,0.591339zm0.717437 -0.591339c-0.0261299,-0.00246063 -0.0298661,0.0372126 -0.00374803,0.039685 0.293335,0.0277677 0.527626,0.262071 0.555398,0.555402 0.00247244,0.0261299 0.0421575,0.0223701 0.039685,-0.00374803 -0.0296063,-0.312677 -0.278465,-0.561551 -0.591335,-0.591339zm0.591335 0.717441c0.00246063,-0.0261299 -0.0372126,-0.0298661 -0.039685,-0.00374803 -0.0277717,0.293339 -0.262063,0.527626 -0.555398,0.555394 -0.026126,0.00247244 -0.0223701,0.0421575 0.00374803,0.039685 0.312681,-0.0295984 0.561539,-0.278453 0.591335,-0.591331zm-0.717437 0.591331c0.0261299,0.00246063 0.0298661,-0.0372126 0.00374803,-0.039685 -0.293331,-0.0277717 -0.52763,-0.262051 -0.555398,-0.555394 -0.00247244,-0.026126 -0.0421575,-0.0223701 -0.039685,0.00374803 0.0295984,0.312685 0.278472,0.561543 0.591335,0.591331z"/>
<path class="fil0" d="M1.16666 0.313331c0.0446535,0 0.0811811,0.0365472 0.0811811,0.0811732l0 0.321189c0,0.0446614 -0.0365354,0.0811693 -0.0811811,0.0811693 -0.0446575,0 -0.0811732,-0.0365197 -0.0811732,-0.0811693l0 -0.321189c0,-0.0447992 0.0365,-0.0811732 0.0811732,-0.0811732zm7.87402e-006 0.04c-0.0226654,0 -0.0411811,0.0185039 -0.0411811,0.0411732l0 0.321189c0,0.0542598 0.0823543,0.0542559 0.0823543,0l0 -0.321189c0,-0.0226535 -0.0185039,-0.0411732 -0.0411732,-0.0411732z"/>
<path class="fil0" d="M2.02 1.16666c0,0.0446535 -0.0365472,0.0811811 -0.0811732,0.0811811l-0.321189 0c-0.0446614,0 -0.0811693,-0.0365354 -0.0811693,-0.0811811 0,-0.0446575 0.0365197,-0.0811732 0.0811693,-0.0811732l0.321189 0c0.0446417,0 0.0811732,0.0365472 0.0811732,0.0811732zm-0.04 7.87402e-006c0,-0.0226654 -0.0185039,-0.0411811 -0.0411732,-0.0411811l-0.321189 0c-0.0542598,0 -0.0542559,0.0823543 0,0.0823543l0.321189 0c0.0226535,0 0.0411732,-0.0185039 0.0411732,-0.0411732z"/>
<path class="fil0" d="M1.16667 2.02c-0.0446535,0 -0.0811811,-0.0365472 -0.0811811,-0.0811732l0 -0.321189c0,-0.0446614 0.0365354,-0.0811693 0.0811811,-0.0811693 0.0446575,0 0.0811732,0.0365197 0.0811732,0.0811693l0 0.321189c0,0.0446417 -0.0365472,0.0811732 -0.0811732,0.0811732zm-7.87402e-006 -0.04c0.0226654,0 0.0411811,-0.0185039 0.0411811,-0.0411732l0 -0.321189c0,-0.0542598 -0.0823543,-0.0542559 -0.0823543,0l0 0.321189c0,0.0226535 0.0185039,0.0411732 0.0411732,0.0411732z"/>
<path class="fil0" d="M0.313331 1.16667c0,-0.0446535 0.0365472,-0.0811811 0.0811732,-0.0811811l0.321189 0c0.0446614,0 0.0811693,0.0365354 0.0811693,0.0811811 0,0.0446575 -0.0365197,0.0811732 -0.0811693,0.0811732l-0.321189 0c-0.0446417,0 -0.0811732,-0.0365472 -0.0811732,-0.0811732zm0.04 -7.87402e-006c0,0.0226654 0.0185039,0.0411811 0.0411732,0.0411811l0.321189 0c0.0542598,0 0.0542559,-0.0823543 0,-0.0823543l-0.321189 0c-0.0226535,0 -0.0411732,0.0185039 -0.0411732,0.0411732z"/>
</g>
</svg>