<?xml version="1.0" encoding="UTF-8" standalone="no"?>
<svg
   xmlns:dc="http://purl.org/dc/elements/1.1/"
   xmlns:cc="http://creativecommons.org/ns#"
   xmlns:rdf="http://www.w3.org/1999/02/22-rdf-syntax-ns#"
   xmlns:svg="http://www.w3.org/2000/svg"
   xmlns="http://www.w3.org/2000/svg"
   xmlns:sodipodi="http://sodipodi.sourceforge.net/DTD/sodipodi-0.dtd"
   xmlns:inkscape="http://www.inkscape.org/namespaces/inkscape"
   version="1.1"
   id="Calque_1"
   x="0px"
   y="0px"
   viewBox="0 0 811.59994 178.5"
   xml:space="preserve"
   sodipodi:docname="Uplay+ Logo.svg"
   width="811.59998"
   height="178.5"
   inkscape:version="1.0.2 (e86c870879, 2021-01-15, custom)"><metadata
   id="metadata46"><rdf:RDF><cc:Work
       rdf:about=""><dc:format>image/svg+xml</dc:format><dc:type
         rdf:resource="http://purl.org/dc/dcmitype/StillImage" /><dc:title>IMG_Logo</dc:title></cc:Work></rdf:RDF></metadata><defs
   id="defs44" /><sodipodi:namedview
   pagecolor="#ffffff"
   bordercolor="#666666"
   borderopacity="1"
   objecttolerance="10"
   gridtolerance="10"
   guidetolerance="10"
   inkscape:pageopacity="0"
   inkscape:pageshadow="2"
   inkscape:window-width="1366"
   inkscape:window-height="705"
   id="namedview42"
   showgrid="false"
   inkscape:zoom="0.99999999"
   inkscape:cx="434.47068"
   inkscape:cy="9.7781128"
   inkscape:window-x="-8"
   inkscape:window-y="-8"
   inkscape:window-maximized="1"
   inkscape:current-layer="Calque_1"
   inkscape:document-rotation="0" />
<style
   type="text/css"
   id="style29">
	.st0{fill:#FFFFFF;}
</style>
<title
   id="title31">IMG_Logo</title>

<g
   id="g57"
   transform="matrix(5.8441294,0,0,5.9002041,0.10159061,0.38914256)"><g
     id="g39"
     style="fill:#fff;fill-opacity:1"
     transform="translate(0.125,0.0625)">
	<g
   id="g37"
   style="fill:#fff;fill-opacity:1">
		<path
   class="st0"
   d="m 37.4,24.7 c -1.3,-0.7 -2.3,-1.8 -3,-3.1 -0.7,-1.4 -1,-2.9 -1,-4.5 V 4.4 H 38 v 12.2 c -0.1,1.3 0.3,2.5 1.1,3.5 0.8,0.9 1.9,1.3 3.1,1.2 1.2,0.1 2.3,-0.4 3.1,-1.2 0.8,-1 1.2,-2.3 1.1,-3.5 V 4.4 H 51 V 17 c 0,1.6 -0.3,3.1 -1,4.5 -0.7,1.3 -1.7,2.4 -3,3.1 -1.5,0.8 -3.1,1.2 -4.7,1.1 -1.8,0.1 -3.5,-0.3 -4.9,-1 z M 53.5,4.4 h 7.4 c 1.3,0 2.5,0.3 3.7,0.8 1,0.5 1.9,1.3 2.4,2.3 0.6,1 0.9,2.2 0.8,3.3 0,1.2 -0.3,2.3 -0.8,3.3 -0.6,1 -1.4,1.8 -2.4,2.3 -1.1,0.6 -2.4,0.8 -3.7,0.8 h -2.8 v 8.2 h -4.6 z m 7.4,8.9 c 0.7,0 1.3,-0.2 1.8,-0.6 0.5,-0.5 0.7,-1.1 0.7,-1.8 0,-0.7 -0.2,-1.3 -0.7,-1.8 C 62.2,8.7 61.6,8.4 60.9,8.5 h -2.8 v 4.8 z m 24,7.8 v 4.3 H 70.2 v -21 h 4.6 v 16.7 z m 15.8,0.3 h -8 l -1.3,4 h -4.8 l 7.6,-21 h 5.2 l 7.6,21 h -5 z M 99.5,17.7 97.6,11.7 97,9.3 h -0.4 l -0.6,2.4 -2,6 z m 12.9,3.1 -7,-16.4 h 4.8 l 4.4,10.1 h 0.4 l 4.3,-10.1 h 4.7 l -8.9,21 h -4.7 z"
   id="path33"
   style="fill:#fff;fill-opacity:1" />
		<path
   class="st0"
   d="M 25.9,20.3 C 24,24.7 19.6,27.6 14.8,27.4 5.9,27 3.3,16.9 9.2,13.2 l 0.3,0.3 c -0.4,0.4 -0.8,0.9 -1,1.5 -0.5,1 -0.8,2.2 -0.8,3.4 0.5,7.1 10.5,8.5 14,1.5 C 26.1,10.3 14.4,0.5 4,8 L 3.8,7.7 C 6.7,3.5 12,1.5 17,2.9 c 6.9,1.6 11.2,8.4 9.6,15.3 -0.2,0.7 -0.4,1.4 -0.7,2.1 z m -8.3,-0.1 c -1.2,1.9 -3.7,2.4 -5.5,1.2 -1.8,-1.2 -2.4,-3.7 -1.2,-5.5 0.7,-1.1 1.9,-1.8 3.2,-1.8 1.3,-0.1 2.5,0.6 3.1,1.8 0.6,1.2 0.4,2.7 -0.6,3.7 0.3,0.1 0.6,0.3 1,0.6 z M 3.6,17.6 C 3.5,18.3 3.5,19.1 3.5,19.8 L 3.2,19.9 C 2.9,19.1 2.7,18.3 2.6,17.5 c -0.4,-4.8 3,-9 7.7,-9.6 4.5,-0.6 8.8,2.1 9.8,6 L 19.8,14 C 19.5,13.6 19.2,13.2 18.8,12.9 13.4,7.5 4.8,10 3.6,17.6 Z M 29.3,15 C 29,-0.4 8.3,-6.1 0.3,8.3 0.6,8.6 1.1,8.9 1.5,9.1 0.9,10.3 0.5,11.6 0.3,13 0.1,13.8 0,14.7 0,15.6 c 0.1,8 6.6,14.5 14.6,14.4 0,0 0,0 0,0 8,0.1 14.6,-6.4 14.7,-14.4 0,0 0,0 0,0 V 15 Z"
   id="path35"
   style="fill:#fff;fill-opacity:1" />
	</g>
</g><path
     d="m 132.82628,9.5534542 v -5.06194 h -3.442 v 5.06194 h -1.311 -2.89902 l -1.61309,3.4164198 h 3.54911 0.963 1.311 v 5.07764 h 3.442 v -5.07764 h 4.247 l 1.437,-3.4164198 z"
     fill="#428ee0"
     id="path928"
     sodipodi:nodetypes="cccccccccccccccc" /></g></svg>
